<?xml version="1.0" encoding="UTF-8" standalone="no"?><!DOCTYPE svg PUBLIC "-//W3C//DTD SVG 1.1//EN" "http://www.w3.org/Graphics/SVG/1.1/DTD/svg11.dtd"><svg width="100%" height="100%" viewBox="0 0 424 251" version="1.1" xmlns="http://www.w3.org/2000/svg" xmlns:xlink="http://www.w3.org/1999/xlink" xml:space="preserve" xmlns:serif="http://www.serif.com/" style="fill-rule:evenodd;clip-rule:evenodd;stroke-linejoin:round;stroke-miterlimit:2;"><rect id="Mesa-de-trabajo1" serif:id="Mesa de trabajo1" x="0" y="0" width="423.394" height="250.463" style="fill:none;"/><g><path d="M106.448,164.883c0,0 11.932,15.98 -39.211,30.211c0,0 -2.663,-0.767 1.582,8.284c4.308,9.183 2.212,8.479 10.108,5.721c8.965,-3.13 45.408,-13.728 45.77,-40.962c0.362,-27.234 -18.628,-6.723 -18.249,-3.254Z" style="fill:#77cabd;"/><g transform="matrix(103.507475,0,0,103.507475,393.446506,157.980663)"></g><text x="147.513px" y="157.981px" style="font-family:'CalSans-Regular', 'Cal Sans';font-size:103.507px;fill:#fff;">gr<tspan x="242.326px 301.532px 359.496px " y="157.981px 157.981px 157.981px ">ekt</tspan></text><path d="M45.008,76.621l-4.045,-6.437c-0.62,-0.987 -1.924,-1.284 -2.911,-0.664l-6.599,4.145c-0.987,0.622 -1.284,1.924 -0.664,2.911l4.908,7.808l10.175,-6.393l-0.861,-1.371l-0.002,0.001" style="fill:#fff;fill-rule:nonzero;"/><path d="M149.254,197.068l-26.468,-42.12l-14.167,-3.233c-0.389,0.397 -0.756,0.812 -1.17,1.192c-1.371,1.259 -2.852,2.426 -4.484,3.452c-14.515,9.119 -33.674,4.747 -42.796,-9.767c-5.445,-8.665 -6.048,-18.971 -2.59,-27.819c0.391,-1.004 0.837,-1.988 1.331,-2.949c0.011,-0.024 0.023,-0.049 0.037,-0.072c0.468,-0.908 0.989,-1.79 1.547,-2.651c0.053,-0.081 0.099,-0.161 0.152,-0.242c0.535,-0.806 1.118,-1.583 1.729,-2.343c0.089,-0.107 0.165,-0.221 0.254,-0.327c0.695,-0.836 1.438,-1.643 2.23,-2.408c1.522,-1.472 3.214,-2.813 5.077,-3.984c1.63,-1.026 3.325,-1.856 5.054,-2.545c4.11,-1.638 8.428,-2.354 12.684,-2.183c9.878,0.398 19.4,5.491 25.058,14.495c1.338,2.129 2.361,4.364 3.129,6.648l13.951,3.184c-0.882,-5.755 -2.899,-11.429 -6.196,-16.672c-9.578,-15.245 -26.989,-22.558 -43.724,-20.038l-28.993,-46.14c-0.63,-1.003 -1.954,-1.305 -2.959,-0.675l-6.442,4.05c-1.003,0.63 -1.306,1.956 -0.675,2.959l27.255,43.375c-1.692,0.782 -3.364,1.639 -4.983,2.658c-1.851,1.161 -3.543,2.476 -5.157,3.855l-4.977,-7.921l0.002,-0.001l-5.397,-8.592l-10.174,6.39l5.667,9.018c-0,0.002 -0.002,0.001 -0.003,0.003l6.611,10.521c-9.01,13.896 -9.777,32.302 -0.385,47.249c12.898,20.526 39.994,26.71 60.52,13.812c1.622,-1.018 3.118,-2.153 4.557,-3.338l24.818,39.496c0.629,1.003 1.954,1.305 2.957,0.675l6.444,-4.049c1.003,-0.63 1.306,-1.956 0.675,-2.959" style="fill:#77cabd;fill-rule:nonzero;"/><path d="M101.365,133.446c-1.869,8.188 -10.02,13.309 -18.206,11.44c-8.188,-1.869 -13.311,-10.018 -11.442,-18.207c1.869,-8.188 10.02,-13.309 18.208,-11.44c8.186,1.868 13.309,10.018 11.44,18.206" style="fill:#fff;fill-rule:nonzero;"/></g></svg>