<?xml version="1.0" encoding="UTF-8"?>
<svg id="Capa_1" data-name="Capa 1" xmlns="http://www.w3.org/2000/svg" viewBox="0 0 793.66 343.75">
  <defs>
    <style>
      .cls-1 {
        fill: #03545f;
      }

      .cls-2 {
        fill: #6b8384;
      }

      .cls-3 {
        fill: #0cc;
      }
    </style>
  </defs>
  <path class="cls-3" d="M191.56,134.55c-3.28-14.28-18.09-24.78-33.34-26.4-10.32-1.1-22.82,7.7-6.42,9.44,1.69.19,3.24.57,4.62,1.13,7.45,3.06,10.63,11.29,10.68,20.07,0,.19.02.38.02.58,0,.04-.02.08-.02.13-.27,15.47-10.29,32.17-23.76,24.61-5.8-3.26-8.65-8.39-10.06-14.21,0-.03,0-.07-.02-.11-.12-.49-.2-1-.3-1.5-1.07-5.92-.81-12.33-.81-17.98v-60.08h1.44c20.19,0,48.29.25,55.46-24.01,15.58-52.78-81.07-62.59-81.07-5.96v20.16h-23.32c.04-19.82-4.75-47.53-21.63-55.15C49.07-1.03,38.57-.05,27,4.2c-5.1,1.65-9.85,4.24-13.97,7.92-2.19,1.79-4.21,3.77-6.02,5.94C0,26.57-1.26,35.54,1.08,43.59c3.24,14.3,18.08,24.83,33.33,26.46,10.35,1.08,22.84-7.71,6.44-9.45-1.69-.18-3.22-.57-4.62-1.14-7.28-2.98-10.49-10.95-10.68-19.5-.27-15.8,9.9-33.64,23.76-25.87,5.79,3.24,8.65,8.38,10.05,14.19.02.04.03.09.04.14.11.48.19.98.29,1.47,1.05,5.92.81,12.35.81,18v60.09h-1.43c-20.19,0-48.3-.26-55.46,23.99-15.6,52.8,81.06,62.6,81.06,5.98v-20.17h23.32c-.02,19.82-2.73,47.34,21.38,55.09.09.03.18.05.26.07,11.29,5.35,24.47,5.31,36.03,1.06,5.1-1.66,9.82-4.25,13.96-7.92,2.18-1.79,4.22-3.78,6.01-5.95,7.04-8.52,8.3-17.5,5.93-25.57ZM156.75,14.58c21.17,12.72,7.77,45.84-14.18,45.84h-10.41v-13.68c0-12.28,3.19-45.03,24.6-32.16ZM84.66,70.23h23.32v37.74h-23.32v-37.74ZM35.9,163.63c-21.16-12.73-7.77-45.86,14.18-45.86h10.41v13.69c0,12.29-3.19,45.03-24.6,32.17Z"/>
  <g>
    <path class="cls-1" d="M275.41,70.72c0,2.9,2.35,5.26,5.25,5.26s5.26-2.36,5.26-5.26V10.95h10.73c2.95,0,5.26-2.27,5.26-5.15s-2.36-5.26-5.26-5.26h-31.97c-2.89,0-5.25,2.36-5.25,5.26s2.3,5.15,5.25,5.15h10.73v59.77Z"/>
    <path class="cls-1" d="M372.68,70.72c0,2.9,2.36,5.26,5.26,5.26s5.25-2.36,5.25-5.26V5.26c0-2.9-2.35-5.26-5.25-5.26s-5.26,2.36-5.26,5.26v24.72h-42.68V5.26c0-2.9-2.35-5.26-5.25-5.26s-5.26,2.36-5.26,5.26v65.46c0,2.9,2.37,5.26,5.26,5.26s5.25-2.36,5.25-5.26v-30.23h42.68v30.23Z"/>
    <path class="cls-1" d="M412.08,75.44h31.96c2.89,0,5.25-2.36,5.25-5.26s-2.31-5.15-5.25-5.15h-26.71v-23.98h20.1c2.9,0,5.26-2.37,5.26-5.27s-2.36-5.25-5.26-5.25h-20.1V10.95h26.71c2.94,0,5.25-2.27,5.25-5.15s-2.36-5.26-5.25-5.26h-31.96c-2.89,0-5.26,2.36-5.26,5.26v64.38c0,2.9,2.37,5.26,5.26,5.26Z"/>
    <path class="cls-1" d="M323.94,103.56c-2.9,0-5.26,2.36-5.26,5.26v24.72h-42.69v-24.72c0-2.9-2.35-5.26-5.25-5.26s-5.25,2.36-5.25,5.26v65.46c0,2.9,2.35,5.26,5.25,5.26s5.25-2.36,5.25-5.26v-30.22h42.69v30.22c0,2.9,2.36,5.26,5.26,5.26s5.25-2.36,5.25-5.26v-65.46c0-2.9-2.36-5.26-5.25-5.26Z"/>
    <path class="cls-1" d="M385.15,180.1c21.26,0,38.55-17.29,38.55-38.55s-17.29-38.54-38.55-38.54-38.55,17.28-38.55,38.54,17.3,38.55,38.55,38.55ZM385.15,113.41c15.72,0,28.04,12.36,28.04,28.14s-12.32,28.14-28.04,28.14-28.03-12.36-28.03-28.14,12.31-28.14,28.03-28.14Z"/>
    <path class="cls-1" d="M473.89,109.36c0-2.89-2.36-5.25-5.26-5.25h-31.97c-2.9,0-5.26,2.36-5.26,5.25s2.31,5.15,5.26,5.15h10.74v59.77c0,2.9,2.36,5.26,5.26,5.26s5.26-2.36,5.26-5.26v-59.77h10.72c2.95,0,5.26-2.26,5.26-5.15Z"/>
    <path class="cls-1" d="M496.73,179h31.97c2.9,0,5.26-2.36,5.26-5.26s-2.31-5.14-5.26-5.14h-26.71v-24h20.09c2.9,0,5.26-2.36,5.26-5.26s-2.36-5.25-5.26-5.25h-20.09v-19.59h26.71c2.95,0,5.26-2.26,5.26-5.15s-2.36-5.25-5.26-5.25h-31.97c-2.9,0-5.25,2.36-5.25,5.25v64.38c0,2.9,2.35,5.26,5.25,5.26Z"/>
    <path class="cls-1" d="M558.45,179h31.96c2.9,0,5.26-2.36,5.26-5.26s-2.31-5.14-5.26-5.14h-26.71v-59.89c0-2.88-2.31-5.14-5.25-5.14s-5.26,2.36-5.26,5.26v64.92c0,2.9,2.36,5.26,5.26,5.26Z"/>
    <path class="cls-1" d="M679.01,251.95c8.55-3.52,14.21-11.78,14.21-21.17,0-12.74-10.27-23.12-22.9-23.12h-19.85c-2.89,0-5.25,2.36-5.25,5.25v64.93c0,2.9,2.36,5.26,5.25,5.26s5.26-2.26,5.26-5.15v-24.06h11.26s22.49,27.34,22.49,27.34c.97,1.18,2.41,1.86,3.93,1.86,1.23,0,2.43-.44,3.39-1.23,1.09-.89,1.76-2.16,1.9-3.55.13-1.4-.29-2.76-1.18-3.84l-18.52-22.53ZM682.61,230.78c0,7.01-5.66,12.72-12.61,12.72h-14.25v-25.41h14.25c6.95,0,12.61,5.69,12.61,12.7Z"/>
    <path class="cls-1" d="M627.43,135.38c-6.69-3.75-12.47-6.99-12.47-13.11,0-5.71,3.53-8.86,9.95-8.86,3.67,0,7.71,1.49,10.32,3.81,2.11,1.85,5.53,1.66,7.51-.62,1.96-2.68,1.09-5.68-.55-7.34-4.26-4.14-9.96-6.25-16.94-6.25-12.44,0-20.8,7.74-20.8,19.26,0,12.28,9.37,17.59,17.63,22.28,7.15,4.06,13.34,7.57,13.34,14.64,0,6.28-4.53,10.5-11.27,10.5-2.21,0-7.74-.43-11.45-4.39-1.9-2.02-5.6-1.93-7.66.25-2.27,2.63-1.25,5.58.49,7.51,4.49,4.6,10.93,7.04,18.61,7.04,12.63,0,21.79-8.79,21.79-20.91,0-13.44-9.83-18.95-18.49-23.81Z"/>
    <path class="cls-1" d="M323.94,207.11c-2.9,0-5.26,2.36-5.26,5.26v50.9l-42.99-53.63c-1.7-1.71-2.86-2.53-4.95-2.53-2.9,0-5.25,2.36-5.25,5.26v65.47c0,2.9,2.35,5.26,5.25,5.26s5.25-2.36,5.25-5.26v-50.88l43,53.63c1.74,1.73,2.87,2.51,4.95,2.51,2.89,0,5.25-2.36,5.25-5.26v-65.47c0-2.9-2.36-5.26-5.25-5.26Z"/>
    <path class="cls-1" d="M390.05,218.08c2.95,0,5.26-2.27,5.26-5.16s-2.36-5.25-5.26-5.25h-31.96c-2.89,0-5.25,2.36-5.25,5.25v64.39c0,2.89,2.36,5.25,5.25,5.25h31.96c2.9,0,5.26-2.36,5.26-5.25s-2.31-5.15-5.26-5.15h-26.71v-23.98h20.1c2.9,0,5.25-2.36,5.25-5.26s-2.36-5.26-5.25-5.26h-20.1v-19.56h26.71Z"/>
    <path class="cls-1" d="M445.71,207.66h-31.97c-2.9,0-5.25,2.36-5.25,5.25s2.31,5.16,5.25,5.16h10.73v59.76c0,2.9,2.36,5.26,5.26,5.26s5.26-2.36,5.26-5.26v-59.76h10.72c2.94,0,5.25-2.27,5.25-5.16s-2.36-5.25-5.25-5.25Z"/>
    <path class="cls-1" d="M592.52,206.56c-21.26,0-38.55,17.29-38.55,38.55s17.29,38.55,38.55,38.55,38.55-17.29,38.55-38.55-17.29-38.55-38.55-38.55ZM592.52,273.25c-15.72,0-28.03-12.36-28.03-28.14s12.31-28.15,28.03-28.15,28.03,12.37,28.03,28.15-12.32,28.14-28.03,28.14Z"/>
    <path class="cls-1" d="M782.87,272.7c-11.29,0-20.09-4.48-29.42-14.96l-12.13-13.58,37.02-28.19c1.24-1,2.05-2.46,2.18-3.93.11-1.21-.26-2.33-1-3.18-.84-1.1-2.15-1.71-3.7-1.71s-3.03.58-4.08,1.5l-46.46,35.61v-31.89c0-2.9-2.35-5.26-5.25-5.26s-5.27,2.36-5.27,5.26v65.47c0,2.9,2.37,5.26,5.27,5.26s5.25-2.36,5.25-5.26v-20.87l7.43-5.98,12.43,14.01c7.51,8.42,18.58,18.1,37.73,18.1,2.89,0,5.25-2.36,5.25-5.26s-2.3-5.14-5.25-5.14Z"/>
    <path class="cls-1" d="M542.14,207.56c-2.83-.51-5.42,1.34-5.95,4l-10.1,51.11-17.55-35.36c-.09-.19-.26-.3-.37-.47-.21-.31-.41-.6-.67-.86-.2-.19-.4-.33-.63-.48-.22-.15-.38-.36-.62-.48-.14-.07-.29-.06-.43-.11-.25-.09-.5-.14-.76-.19-.35-.07-.69-.15-1.04-.15-.41-.01-.79.08-1.19.17-.21.05-.41.08-.61.16-.16.06-.33.05-.49.13-.27.13-.46.36-.7.54-.17.12-.33.23-.49.38-.3.28-.53.59-.75.94-.1.15-.25.26-.34.43l-17.55,35.35-10.09-51.1c-.53-2.66-3.02-4.51-5.97-4-2.75.56-4.55,3.24-4,5.97l12.99,65.75c.02.13.1.22.13.34.07.24.17.45.27.68.15.36.33.69.56.99.15.19.3.36.46.53.29.29.6.53.95.74.13.08.22.21.36.28.07.04.15.02.23.05.63.29,1.3.48,2.02.48.38,0,.7-.04,1-.1.05-.01.08-.04.12-.05.61-.13,1.17-.37,1.69-.71.06-.04.09-.08.14-.12.44-.31.8-.69,1.13-1.13.07-.1.15-.21.22-.32.08-.13.19-.24.26-.38l19.64-39.56,19.64,39.56c.06.13.16.23.23.35.04.07.05.15.09.21.04.07.12.11.18.17.31.44.68.82,1.12,1.12.05.04.1.09.15.12.5.33,1.06.55,1.65.69.04,0,.07.04.1.04.31.08.66.12,1.04.12.72,0,1.39-.19,2.02-.48.08-.04.17-.02.24-.06.15-.08.25-.21.4-.3.31-.2.59-.41.86-.67.19-.18.35-.37.51-.59.22-.3.38-.61.54-.96.07-.15.19-.26.24-.42.03-.1.02-.2.04-.3.03-.12.1-.21.13-.33l12.99-65.75c.55-2.73-1.25-5.41-4.02-5.97Z"/>
  </g>
  <path class="cls-2" d="M266.86,343.75c-.46,0-.76-.15-.91-.3-.15-.15-.3-.46-.46-.76,0-.3,0-.61.15-1.06l9.86-22.61c.15-.46.46-.76.76-1.06.3-.15.61-.3,1.06-.3.3,0,.76.15.91.3.3.15.61.46.76,1.06l10.01,22.61c.15.46.3.76.15,1.06,0,.3-.15.61-.3.76s-.46.3-.91.3-.76-.15-1.06-.3c-.3-.3-.46-.61-.61-1.06l-2.73-6.22,1.52.76h-15.48l1.52-.76-2.58,6.22c-.15.46-.46.76-.76,1.06-.3.15-.61.3-.91.3ZM277.33,321.45l-5.77,13.66-.91-.76h13.35l-.76.76-5.92-13.66h0ZM313.29,343.45c-.91,0-1.67-.3-2.12-.76s-.76-1.21-.76-2.12v-19.88c0-.91.3-1.67.76-2.12s1.21-.76,2.12-.76,1.52.3,2.12.76c.46.46.76,1.21.76,2.12v17.9h9.71c.76,0,1.37.15,1.82.61.46.46.61,1.06.61,1.67,0,.76-.15,1.37-.61,1.82s-1.06.61-1.82.61h-12.59v.15ZM337.57,343.75c-.91,0-1.67-.3-2.12-.76s-.76-1.21-.76-2.12v-20.33c0-.91.3-1.67.76-2.12s1.21-.76,2.12-.76,1.52.3,2.12.76c.46.46.76,1.21.76,2.12v20.33c0,.91-.3,1.67-.76,2.12-.61.61-1.21.76-2.12.76ZM361.54,343.91c-2.88,0-5.31-.61-7.28-1.67-1.97-1.06-3.49-2.58-4.55-4.55s-1.52-4.25-1.52-6.83c0-1.97.3-3.79.91-5.46.61-1.67,1.52-3.03,2.73-4.1,1.21-1.21,2.58-1.97,4.25-2.73,1.67-.61,3.64-.91,5.77-.91,1.37,0,2.58.15,3.94.46,1.37.3,2.58.76,3.79,1.52.46.3.91.61,1.06,1.06.15.46.3.91.15,1.37,0,.46-.3.91-.61,1.37-.3.3-.61.61-1.21.76-.46.15-1.06,0-1.52-.3-.76-.46-1.67-.76-2.58-.91s-1.82-.3-2.88-.3c-1.67,0-3.19.3-4.25.91-1.21.61-1.97,1.52-2.58,2.88-.61,1.21-.76,2.73-.76,4.55,0,2.73.61,4.7,1.97,6.22,1.37,1.37,3.34,2.12,5.92,2.12.91,0,1.82-.15,2.73-.3.91-.15,1.82-.46,2.73-.76l-1.06,2.28v-6.98h-3.19c-.76,0-1.21-.15-1.67-.61-.46-.3-.61-.91-.61-1.52s.15-1.21.61-1.52c.46-.3.91-.61,1.67-.61h5.61c.76,0,1.21.15,1.67.61.46.46.61.91.61,1.67v8.35c0,.61-.15,1.21-.3,1.52-.3.46-.61.76-1.21.91-1.06.46-2.28.76-3.64.91-1.97.46-3.34.61-4.7.61ZM382.18,343.75c-.91,0-1.67-.3-2.12-.76s-.76-1.21-.76-2.12v-20.33c0-.91.3-1.67.76-2.12s1.21-.76,2.12-.76,1.52.3,2.12.76c.46.46.76,1.21.76,2.12v7.59h11.83v-7.59c0-.91.3-1.67.76-2.12s1.21-.76,2.12-.76,1.67.3,2.12.76.76,1.21.76,2.12v20.33c0,.91-.3,1.67-.76,2.12-.46.46-1.21.76-2.12.76s-1.52-.3-2.12-.76c-.46-.46-.76-1.21-.76-2.12v-8.04h-11.83v8.04c0,.91-.3,1.67-.76,2.12-.46.61-1.21.76-2.12.76ZM420.11,343.75c-.91,0-1.67-.3-2.12-.76s-.76-1.21-.76-2.12v-18.21h-6.37c-.76,0-1.37-.15-1.67-.61-.46-.46-.61-.91-.61-1.67s.15-1.37.61-1.67c.46-.46,1.06-.61,1.67-.61h18.36c.76,0,1.37.15,1.67.61.46.46.61.91.61,1.67s-.15,1.21-.61,1.67c-.46.46-1.06.61-1.67.61h-6.37v18.21c0,.91-.3,1.67-.76,2.12-.46.61-1.06.76-1.97.76ZM440.44,343.75c-.91,0-1.67-.3-2.12-.76s-.76-1.21-.76-2.12v-20.33c0-.91.3-1.67.76-2.12s1.21-.76,2.12-.76,1.52.3,2.12.76c.46.46.76,1.21.76,2.12v7.59h11.83v-7.59c0-.91.3-1.67.76-2.12s1.21-.76,2.12-.76,1.67.3,2.12.76c.46.46.76,1.21.76,2.12v20.33c0,.91-.3,1.67-.76,2.12-.46.46-1.21.76-2.12.76s-1.52-.3-2.12-.76c-.46-.46-.76-1.21-.76-2.12v-8.04h-11.83v8.04c0,.91-.3,1.67-.76,2.12-.61.61-1.21.76-2.12.76ZM481.1,343.91c-2.43,0-4.7-.61-6.68-1.67-1.82-1.06-3.34-2.58-4.4-4.55-1.06-1.97-1.52-4.25-1.52-6.83,0-1.97.3-3.79.91-5.31.61-1.67,1.52-3.03,2.58-4.1,1.06-1.21,2.43-1.97,3.94-2.73,1.52-.61,3.34-.91,5.16-.91,2.58,0,4.7.61,6.68,1.67,1.82,1.06,3.34,2.58,4.4,4.55,1.06,1.97,1.52,4.25,1.52,6.83,0,1.97-.3,3.79-.91,5.46s-1.52,3.03-2.58,4.1c-1.06,1.21-2.43,1.97-3.94,2.73-1.52.46-3.19.76-5.16.76ZM481.1,339.05c1.37,0,2.58-.3,3.64-.91,1.06-.61,1.82-1.67,2.28-2.88.61-1.21.76-2.73.76-4.55,0-2.58-.61-4.7-1.82-6.07-1.21-1.52-2.88-2.28-5.01-2.28-1.37,0-2.58.3-3.64.91-1.06.61-1.82,1.67-2.28,2.88-.46,1.21-.76,2.73-.76,4.55,0,2.58.61,4.7,1.82,6.22,1.21,1.37,2.88,2.12,5.01,2.12ZM512.51,343.91c-1.82,0-3.34-.3-4.86-.76-1.37-.46-2.58-1.21-3.49-2.12-.91-.91-1.67-2.12-2.12-3.49-.46-1.37-.76-3.03-.76-4.86v-12.29c0-.91.3-1.67.76-2.12s1.21-.76,2.12-.76,1.52.3,2.12.76c.46.46.76,1.21.76,2.12v12.29c0,2.12.46,3.64,1.37,4.7.91,1.06,2.28,1.52,4.1,1.52s3.19-.46,4.1-1.52c.91-1.06,1.37-2.58,1.37-4.7v-12.29c0-.91.3-1.67.76-2.12s1.21-.76,2.12-.76,1.52.3,1.97.76.76,1.21.76,2.12v12.29c0,2.43-.46,4.4-1.21,6.07-.76,1.67-1.97,2.88-3.64,3.64-1.82,1.06-3.79,1.52-6.22,1.52ZM541.19,343.91c-1.06,0-1.97-.15-3.03-.3-1.06-.15-1.97-.3-3.03-.61-.91-.3-1.82-.61-2.58-1.06-.46-.3-.91-.61-1.06-1.06s-.3-.91-.3-1.52c0-.46.3-.91.61-1.21.3-.46.76-.61,1.21-.76s1.06,0,1.52.3c1.06.61,2.12.91,3.19,1.21,1.21.3,2.28.46,3.49.46,1.82,0,3.03-.3,3.79-.76.76-.61,1.06-1.21,1.06-2.12,0-.76-.3-1.21-.76-1.67s-1.52-.76-2.73-1.06l-4.1-.91c-2.28-.46-4.1-1.37-5.16-2.43-1.06-1.21-1.67-2.73-1.67-4.55,0-1.21.3-2.28.76-3.34s1.21-1.82,2.12-2.58c.91-.76,1.97-1.21,3.19-1.67,1.21-.46,2.73-.61,4.25-.61,1.37,0,2.73.15,3.94.46,1.37.3,2.43.76,3.49,1.37.46.3.76.61.91,1.06.15.46.3.91.15,1.37,0,.46-.3.76-.61,1.21-.3.3-.61.61-1.06.61-.46.15-1.06,0-1.67-.3-.76-.46-1.67-.76-2.58-.91s-1.82-.3-2.73-.3c-1.06,0-1.82.15-2.58.46-.76.3-1.21.61-1.67,1.06-.3.46-.61,1.06-.61,1.67,0,.76.3,1.21.76,1.67.46.46,1.37.76,2.58,1.06l4.1.91c2.43.46,4.1,1.37,5.31,2.43s1.67,2.58,1.67,4.4c0,1.21-.3,2.28-.76,3.34-.46.91-1.21,1.82-2.12,2.43-.91.76-1.97,1.21-3.34,1.67-.91.46-2.28.61-3.94.61ZM561.82,343.75c-.91,0-1.67-.3-2.12-.76-.46-.46-.76-1.52-.76-2.43v-19.57c0-.91.3-1.67.76-2.12s1.21-.76,2.12-.76h12.59c.76,0,1.21.15,1.67.61.46.3.61.91.61,1.52,0,.76-.15,1.21-.61,1.67-.3.3-.91.61-1.67.61h-10.17v5.92h9.41c.76,0,1.37.15,1.67.61.46.3.61.91.61,1.67s-.15,1.21-.61,1.67c-.3.3-.91.61-1.67.61h-9.41v6.37h10.17c.76,0,1.21.15,1.67.61.46.3.61.91.61,1.52,0,.76-.15,1.21-.61,1.67-.3.3-.91.61-1.67.61h-12.59ZM609.62,343.75c-2.43,0-4.7-.46-6.37-1.52-1.82-1.06-3.19-2.58-4.1-4.55-.91-1.97-1.37-4.25-1.37-6.98,0-1.97.3-3.79.76-5.46.61-1.67,1.37-3.03,2.28-4.1,1.06-1.06,2.28-1.97,3.79-2.58,1.52-.61,3.19-.91,5.01-.91,1.52,0,2.88.15,4.25.61s2.58,1.06,3.49,1.82c.3.3.46.46.61.76s.15.61,0,.91c0,.3-.15.46-.46.76-.15.15-.46.3-.76.3s-.61-.15-.91-.3c-.91-.76-1.82-1.21-2.88-1.52-1.06-.3-2.12-.46-3.34-.46-1.97,0-3.49.46-4.86,1.21-1.37.76-2.28,1.97-3.03,3.49-.61,1.52-1.06,3.34-1.06,5.61,0,2.12.3,4.1,1.06,5.61.61,1.52,1.67,2.73,3.03,3.49,1.37.76,2.88,1.21,4.86,1.21,1.21,0,2.28-.15,3.34-.46,1.06-.3,1.97-.91,2.88-1.52.3-.3.76-.3.91-.3.3,0,.46.15.76.3.15.15.3.46.46.61.15.3.15.61,0,.76,0,.3-.3.61-.61.76-1.06.91-2.28,1.52-3.64,1.97-1.21.3-2.58.46-4.1.46ZM636.32,343.75c-2.43,0-4.4-.46-6.22-1.52-1.67-1.06-3.03-2.58-4.1-4.55-.91-1.97-1.37-4.25-1.37-6.98,0-1.97.3-3.79.76-5.46.61-1.67,1.37-3.03,2.28-4.1,1.06-1.06,2.28-1.97,3.64-2.58,1.52-.61,3.03-.91,4.86-.91,2.43,0,4.4.46,6.22,1.52,1.82,1.06,3.03,2.58,4.1,4.55.91,1.97,1.52,4.25,1.52,6.83,0,1.97-.3,3.79-.76,5.46-.61,1.67-1.37,3.03-2.28,4.1-1.06,1.06-2.28,1.97-3.64,2.58-1.52.76-3.19,1.06-5.01,1.06ZM636.32,341.18c1.82,0,3.34-.46,4.55-1.21s2.28-1.97,2.88-3.64c.61-1.52,1.06-3.49,1.06-5.61,0-3.34-.76-5.92-2.28-7.59-1.52-1.82-3.64-2.73-6.37-2.73-1.82,0-3.34.46-4.55,1.21-1.21.76-2.28,1.97-2.88,3.64-.61,1.52-1.06,3.34-1.06,5.61,0,3.34.76,5.77,2.28,7.74,1.67,1.67,3.79,2.58,6.37,2.58ZM658.47,343.75c-.46,0-.76-.15-1.06-.3-.3-.3-.3-.61-.3-1.06v-23.06c0-.46.15-.91.3-1.06s.61-.3,1.06-.3.76.15.91.3c.3.15.46.46.61.76l9.86,18.66h-1.06l9.86-18.66c.15-.3.46-.61.61-.76.15-.15.46-.3.91-.3s.76.15.91.3c.3.3.3.61.3,1.06v23.06c0,.46-.15.76-.3,1.06-.15.3-.61.3-1.06.3s-.76-.15-1.06-.3c-.3-.3-.3-.61-.3-1.06v-20.33h.91l-8.95,16.99c-.15.3-.3.61-.61.76-.15.15-.46.15-.76.15s-.61,0-.76-.15-.3-.3-.46-.61l-9.1-16.99h.91v20.33c0,.46-.15.76-.3,1.06-.3,0-.76.15-1.06.15ZM692.92,343.75c-.46,0-.91-.15-1.06-.46-.3-.3-.3-.61-.3-1.21v-22.61c0-.46.15-.91.46-1.06.3-.3.61-.46,1.06-.46h8.5c2.73,0,4.86.61,6.22,1.97,1.52,1.37,2.28,3.19,2.28,5.61s-.76,4.25-2.28,5.61c-1.52,1.37-3.49,1.97-6.22,1.97h-7.13v8.8c0,.46-.15.91-.3,1.21-.3.46-.76.61-1.21.61ZM694.43,330.86h6.68c1.97,0,3.49-.46,4.4-1.37,1.06-.91,1.52-2.12,1.52-3.79s-.46-3.03-1.52-3.79c-1.06-.91-2.43-1.37-4.4-1.37h-6.68v10.32ZM714.76,343.75c-.46,0-.76-.15-.91-.3-.15-.15-.3-.46-.46-.76,0-.3,0-.61.15-1.06l9.86-22.61c.15-.46.46-.76.76-1.06.3-.15.61-.3,1.06-.3.3,0,.76.15.91.3.3.15.61.46.76,1.06l10.01,22.61c.15.46.3.76.15,1.06,0,.3-.15.61-.3.76-.15.15-.46.3-.91.3s-.76-.15-1.06-.3c-.3-.3-.46-.61-.61-1.06l-2.73-6.22,1.52.76h-15.48l1.52-.76-2.58,6.22c-.15.46-.46.76-.76,1.06-.15.15-.46.3-.91.3ZM725.39,321.45l-5.77,13.66-.91-.76h13.35l-.76.76-5.92-13.66h0ZM746.63,343.75c-.46,0-.76-.15-1.06-.3-.3-.3-.3-.61-.3-1.06v-22.91c0-.46.15-.91.3-1.06.3-.3.61-.46.91-.46.46,0,.61,0,.76.15s.46.3.61.76l15.78,20.94h-.91v-20.48c0-.46.15-.76.3-1.06.3-.3.61-.46,1.06-.46s.76.15.91.46c.3.3.3.61.3,1.06v23.06c0,.46-.15.76-.3,1.06-.15.3-.46.3-.91.3-.3,0-.61,0-.91-.15-.15-.15-.46-.3-.76-.76l-15.17-20.94h.76v20.33c0,.46-.15.91-.3,1.06-.3.3-.61.46-1.06.46ZM783.19,343.75c-.46,0-.91-.15-1.06-.46-.3-.3-.3-.76-.3-1.21v-11.83l.61,2.12-9.1-12.44c-.15-.3-.3-.61-.3-.91s.15-.61.46-.76.61-.3.91-.3.61.15.91.3c.3.15.46.46.76.76l7.74,10.62h-.76l7.74-10.62c.3-.3.46-.61.76-.76s.46-.15.91-.15.76.15.91.3.3.46.3.76-.15.61-.3,1.06l-8.95,12.44.61-2.12v11.83c-.3.76-.76,1.37-1.82,1.37Z"/>
</svg>